HIERARCHY
ROOT Hips
{
	OFFSET 0.000000 0.000000 0.000000
	CHANNELS 6 Xposition Yposition Zposition Xrotation Yrotation Zrotation
	JOINT LeftUpLeg_virtual
	{
		OFFSET 0.000000 0.000000 0.000000
		CHANNELS 3 Xrotation Yrotation Zrotation
		JOINT LeftUpLeg
		{
			OFFSET 15.427100 -6.655098 0.678600
			CHANNELS 3 Xrotation Yrotation Zrotation
			JOINT LeftLeg
			{
				OFFSET 4.081073 -39.591068 13.024000
				CHANNELS 3 Xrotation Yrotation Zrotation
				JOINT LeftFoot
				{
					OFFSET -4.081074 -37.707932 -15.979700
					CHANNELS 3 Xrotation Yrotation Zrotation
					JOINT LeftToeBase
					{
						OFFSET 5.346399 -15.068900 20.645000
						CHANNELS 3 Xrotation Yrotation Zrotation
						JOINT LeftToe_End
						{
							OFFSET 2.754700 0.931300 11.300900
							CHANNELS 3 Xrotation Yrotation Zrotation
							End Site
							{
								OFFSET 0 0 0
							}
						}
					}
				}
			}
		}
	}
	JOINT RightUpLeg_virtual
	{
		OFFSET 0.000000 0.000000 0.000000
		CHANNELS 3 Xrotation Yrotation Zrotation
		JOINT RightUpLeg
		{
			OFFSET -15.569500 -6.655098 0.678600
			CHANNELS 3 Xrotation Yrotation Zrotation
			JOINT RightLeg
			{
				OFFSET -4.081825 -39.591045 13.023800
				CHANNELS 3 Xrotation Yrotation Zrotation
				JOINT RightFoot
				{
					OFFSET 4.081824 -37.707954 -15.979600
					CHANNELS 3 Xrotation Yrotation Zrotation
					JOINT RightToeBase
					{
						OFFSET -5.346400 -15.068900 20.645000
						CHANNELS 3 Xrotation Yrotation Zrotation
						JOINT RightToe_End
						{
							OFFSET -2.754700 0.931300 11.300900
							CHANNELS 3 Xrotation Yrotation Zrotation
							End Site
							{
								OFFSET 0 0 0
							}
						}
					}
				}
			}
		}
	}
	JOINT Spine_virtual
	{
		OFFSET 0.000000 0.000000 0.000000
		CHANNELS 3 Xrotation Yrotation Zrotation
		JOINT Spine
		{
			OFFSET -0.279200 12.230698 -2.892100
			CHANNELS 3 Xrotation Yrotation Zrotation
			JOINT Spine1
			{
				OFFSET -0.232667 10.192268 -1.242267
				CHANNELS 3 Xrotation Yrotation Zrotation
				JOINT Spine1_split
				{
					OFFSET -0.232667 10.192268 -1.242267
					CHANNELS 3 Xrotation Yrotation Zrotation
					JOINT Spine2
					{
						OFFSET -0.232667 10.192268 -1.242267
						CHANNELS 3 Xrotation Yrotation Zrotation
						JOINT Neck_virtual
						{
							OFFSET 0.000000 0.000000 0.000000
							CHANNELS 3 Xrotation Yrotation Zrotation
							JOINT Neck
							{
								OFFSET -0.418800 17.814194 8.416900
								CHANNELS 3 Xrotation Yrotation Zrotation
								JOINT Head
								{
									OFFSET 0.000000 7.031097 3.806800
									CHANNELS 3 Xrotation Yrotation Zrotation
									JOINT HeadTop_End
									{
										OFFSET 0.000000 24.646606 12.978600
										CHANNELS 3 Xrotation Yrotation Zrotation
										End Site
										{
											OFFSET 0 0 0
										}
									}
								}
							}
						}
						JOINT LeftShoulder_virtual
						{
							OFFSET 0.000000 0.000000 0.000000
							CHANNELS 3 Xrotation Yrotation Zrotation
							JOINT LeftShoulder
							{
								OFFSET 8.476499 7.247704 -3.868750
								CHANNELS 3 Xrotation Yrotation Zrotation
								JOINT LeftShoulder_split
								{
									OFFSET 8.476499 7.247704 -3.868750
									CHANNELS 3 Xrotation Yrotation Zrotation
									JOINT LeftArm
									{
										OFFSET 9.308998 -2.777710 0.208600
										CHANNELS 3 Xrotation Yrotation Zrotation
										JOINT LeftForeArm
										{
											OFFSET 29.972298 0.000000 0.000000
											CHANNELS 3 Xrotation Yrotation Zrotation
											JOINT LeftHand
											{
												OFFSET 26.026505 0.000000 0.000000
												CHANNELS 3 Xrotation Yrotation Zrotation
												End Site
												{
													OFFSET 0 0 0
												}
											}
										}
									}
								}
							}
						}
						JOINT RightShoulder_virtual
						{
							OFFSET 0.000000 0.000000 0.000000
							CHANNELS 3 Xrotation Yrotation Zrotation
							JOINT RightShoulder
							{
								OFFSET -7.570500 7.247704 -3.868750
								CHANNELS 3 Xrotation Yrotation Zrotation
								JOINT RightShoulder_split
								{
									OFFSET -7.570500 7.247704 -3.868750
									CHANNELS 3 Xrotation Yrotation Zrotation
									JOINT RightArm
									{
										OFFSET -9.308998 -2.777710 0.208500
										CHANNELS 3 Xrotation Yrotation Zrotation
										JOINT RightForeArm
										{
											OFFSET -29.972300 0.000000 0.000000
											CHANNELS 3 Xrotation Yrotation Zrotation
											JOINT RightHand
											{
												OFFSET -26.026505 0.000000 0.000000
												CHANNELS 3 Xrotation Yrotation Zrotation
												End Site
												{
													OFFSET 0 0 0
												}
											}
										}
									}
								}
							}
						}
					}
				}
			}
		}
	}
}
MOTION
Frames: 5
Frame Time: 0.03333333
-0.179106 82.470963 0.494305 0.000000 0.000000 0.000000 -4.174068 -15.666545 -2.203666 -31.873682 17.716836 13.234850 45.588583 -0.131328 11.243180 -16.908239 3.373054 -9.155501 -0.284417 -0.268877 -1.287672 0.000000 0.000000 0.000000 -4.887584 -13.971598 -1.903605 -26.066801 -22.950378 -13.163297 45.405482 -5.918257 -18.453242 -15.420545 -2.134451 13.322594 -2.778555 1.172975 0.129231 0.000000 0.000000 0.000000 -3.129273 -17.473582 -2.159710 4.336429 3.012196 2.456082 2.841243 2.020529 -0.040980 1.648936 -0.619191 0.176036 0.000000 0.000000 0.000000 2.806351 1.775061 -0.016945 1.065553 -0.192249 4.536668 0.240773 9.710567 1.318635 0.000000 0.000000 0.000000 2.729625 1.963809 -0.225975 -0.029013 -4.027114 17.146141 -1.959282 -0.051066 -0.541684 -66.889743 -43.358133 -62.490357 -0.945895 -34.266632 0.741336 0.000000 0.000000 0.000000 3.229858 1.945719 -0.079912 -0.352672 -3.430940 -5.201544 0.882156 0.881735 0.616278 -104.044429 58.808557 95.588463 -1.496945 29.815207 0.421425 0.000000 0.000000 0.000000 
-0.201969 82.410553 0.487446 0.000000 0.000000 0.000000 -4.112613 -15.701382 -2.156562 -31.939624 17.764627 13.120312 45.497492 -0.142919 11.285224 -16.833459 3.328011 -9.201649 -0.311799 -0.245301 -1.307454 0.000000 0.000000 0.000000 -4.884260 -13.949883 -1.863057 -26.044391 -23.014372 -13.232141 45.658770 -5.978782 -18.381009 -15.649432 -2.134375 13.350039 -2.303152 1.162496 0.061069 0.000000 0.000000 0.000000 -3.140460 -17.355427 -2.215878 4.343602 2.983254 2.387329 2.856448 2.013821 -0.072896 1.541563 -0.316666 0.049210 0.000000 0.000000 0.000000 2.729920 1.754036 -0.042381 0.919526 -0.313751 4.572704 0.442863 9.748781 1.309045 0.000000 0.000000 0.000000 2.741700 1.943060 -0.240329 -0.083249 -3.883351 17.065566 -1.964505 -0.048950 -0.433765 -66.812699 -43.571003 -62.579491 -0.899098 -34.555611 0.801403 0.000000 0.000000 0.000000 3.293410 1.947610 -0.098034 -0.330583 -3.339012 -5.298158 0.875660 0.837181 0.595505 -104.037954 59.327255 95.759601 -1.368445 29.547805 0.386470 0.000000 0.000000 0.000000 
-0.205225 82.363739 0.477863 0.000000 0.000000 0.000000 -4.018319 -15.816763 -2.064287 -32.030691 17.855624 12.949035 45.408105 -0.143627 11.424269 -16.599264 3.218369 -9.363515 -0.280382 -0.205782 -1.368858 0.000000 0.000000 0.000000 -4.860057 -14.126558 -1.780036 -26.067369 -23.047956 -13.313084 45.769661 -6.057714 -18.310083 -15.659093 -2.192872 13.419349 -2.203764 1.104310 -0.012877 0.000000 0.000000 0.000000 -3.174348 -17.227089 -2.248695 4.266878 2.916320 2.260388 2.809184 2.046070 -0.117197 1.311244 -0.316070 -0.068313 0.000000 0.000000 0.000000 2.679553 1.778436 -0.090487 0.809466 -0.515214 4.774986 0.868336 9.599260 1.477863 0.000000 0.000000 0.000000 2.740752 1.964661 -0.276195 -0.166432 -3.591986 16.898243 -1.878418 -0.041156 -0.422547 -66.602056 -44.050779 -62.616552 -0.940399 -35.028048 0.748019 0.000000 0.000000 0.000000 3.323644 1.983352 -0.129333 -0.260405 -3.115781 -5.454503 0.685615 0.764855 0.402210 -103.806533 59.987332 96.058633 -1.203078 29.348281 0.309527 0.000000 0.000000 0.000000 
-0.197036 82.356865 0.473007 0.000000 0.000000 0.000000 -3.902702 -16.046237 -1.960225 -32.134449 17.993954 12.823140 45.283126 -0.114895 11.618548 -16.305822 3.089124 -9.554683 -0.198501 -0.151386 -1.448867 0.000000 0.000000 0.000000 -4.756362 -14.481685 -1.679524 -26.099288 -23.007803 -13.329099 45.693064 -6.122842 -18.269004 -15.441249 -2.271069 13.486184 -2.489635 1.007356 -0.028477 0.000000 0.000000 0.000000 -3.198721 -17.206169 -2.249453 4.108335 2.816242 2.124479 2.706549 2.090747 -0.166772 1.006096 -0.572552 -0.030525 0.000000 0.000000 0.000000 2.649906 1.831430 -0.147666 0.739773 -0.752793 5.089485 1.368946 9.369638 1.770401 0.000000 0.000000 0.000000 2.713115 2.011807 -0.328439 -0.265446 -3.196721 16.629996 -1.678137 -0.069044 -0.497390 -66.332994 -44.802414 -62.718861 -1.021619 -35.459941 0.588376 0.000000 0.000000 0.000000 3.313049 2.033122 -0.166665 -0.150684 -2.804011 -5.669638 0.490580 0.652574 0.206969 -103.384496 60.616016 96.417396 -1.029282 29.306576 0.207513 0.000000 0.000000 0.000000 
-0.193289 82.376694 0.480465 0.000000 0.000000 0.000000 -3.805669 -16.384022 -1.884868 -32.262668 18.147316 12.778316 45.167874 -0.043926 11.829982 -15.987688 3.003053 -9.682135 -0.075670 -0.085153 -1.522443 0.000000 0.000000 0.000000 -4.554574 -14.921843 -1.598542 -26.104375 -22.859414 -13.215251 45.504506 -6.213862 -18.271796 -15.144865 -2.353532 13.368682 -2.650846 0.889800 0.063977 0.000000 0.000000 0.000000 -3.110100 -17.333354 -2.212692 3.897921 2.711079 2.016695 2.571831 2.125151 -0.211428 0.887480 -0.870498 0.080372 0.000000 0.000000 0.000000 2.625426 1.877608 -0.198530 0.691849 -0.975957 5.391988 1.755093 9.161402 2.104222 0.000000 0.000000 0.000000 2.650168 2.055166 -0.382331 -0.377175 -2.748601 16.312553 -1.588433 -0.094621 -0.653010 -66.111710 -45.762510 -62.928124 -1.067624 -35.775663 0.407434 0.000000 0.000000 0.000000 3.252024 2.071549 -0.200022 -0.021298 -2.446514 -5.924731 0.310716 0.505420 0.011908 -102.936073 61.066071 96.737991 -0.889124 29.420640 0.156378 0.000000 0.000000 0.000000 
